# Blender v2.82 (sub 7) OBJ File: 'BlenderNatureAsset.blend'
# www.blender.org
o SapinHiver.015_Cylinder.034
v -0.067486 -0.075848 -0.192462
v -0.118416 1.185975 -0.201042
v 0.092558 -0.068986 -0.133346
v 0.041628 1.192837 -0.141927
v 0.163927 -0.065051 0.021723
v 0.112997 1.196772 0.013143
v 0.104815 -0.066348 0.181910
v 0.053885 1.195476 0.173329
v -0.050152 -0.072116 0.253378
v -0.101082 1.189707 0.244797
v -0.210196 -0.078978 0.194263
v -0.261125 1.182845 0.185682
v -0.281565 -0.082913 0.039193
v -0.332495 1.178910 0.030613
v -0.222453 -0.081617 -0.120993
v -0.273382 1.180207 -0.129574
vt 0.294028 0.996185
vt 0.180107 0.421817
vt 0.294028 0.418717
vt 0.180107 1.002385
vt 0.001077 0.415616
vt 0.180107 0.418717
vt 0.421155 0.998201
vt 0.303385 0.415197
vt 0.421155 0.415197
vt 0.303385 0.998201
vt 0.136008 0.415197
vt 0.136008 0.998201
vt -0.003465 0.415197
vt 0.548405 0.998201
vt 0.424434 0.418298
vt 0.548405 0.418298
vt 0.418044 0.695447
vt 0.154700 0.598250
vt 0.098804 0.867984
vt 0.417250 0.996185
vt 0.417250 0.418717
vt 0.552874 0.996185
vt 0.552874 0.418717
vt 0.000000 0.000000
vt 0.000000 0.000000
vt 0.000000 0.000000
vt 0.180107 0.999285
vt 0.001077 0.999285
vt -0.003464 0.998201
vt 0.424434 0.998201
vt 0.366923 0.872169
vt 0.431238 0.797760
vt 0.349042 0.614836
vt 0.077146 0.725366
vt 0.244477 0.939293
vt 0.000000 0.000000
vt 0.000000 0.000000
vt 0.000000 0.000000
vt 0.000000 0.000000
vt 0.000000 0.000000
vn 0.3462 0.0076 -0.9381
vn 0.9076 0.0338 -0.4186
vn 0.9373 0.0402 0.3462
vn 0.4180 0.0230 0.9082
vn -0.3462 -0.0076 0.9381
vn -0.9076 -0.0338 0.4186
vn -0.0403 0.9992 -0.0068
vn -0.4180 -0.0230 -0.9082
vn -0.9373 -0.0402 -0.3462
vn 0.0403 -0.9992 0.0068
s off
f 2/1/1 3/2/1 1/3/1
f 4/4/2 5/5/2 3/6/2
f 6/7/3 7/8/3 5/9/3
f 8/10/4 9/11/4 7/8/4
f 10/12/5 11/13/5 9/11/5
f 12/14/6 13/15/6 11/16/6
f 2/17/7 14/18/7 10/19/7
f 16/20/8 1/3/8 15/21/8
f 14/22/9 15/21/9 13/23/9
f 13/24/10 15/25/10 7/26/10
f 2/1/1 4/27/1 3/2/1
f 4/4/2 6/28/2 5/5/2
f 6/7/3 8/10/3 7/8/3
f 8/10/4 10/12/4 9/11/4
f 10/12/5 12/29/5 11/13/5
f 12/14/6 14/30/6 13/15/6
f 6/31/7 4/32/7 2/17/7
f 2/17/7 16/33/7 14/18/7
f 14/18/7 12/34/7 10/19/7
f 10/19/7 8/35/7 6/31/7
f 6/31/7 2/17/7 10/19/7
f 16/20/8 2/1/8 1/3/8
f 14/22/9 16/20/9 15/21/9
f 15/25/10 1/36/10 3/37/10
f 3/37/10 5/38/10 15/25/10
f 5/38/10 7/26/10 15/25/10
f 7/26/10 9/39/10 11/40/10
f 11/40/10 13/24/10 7/26/10
